<svg width="183" height="174" viewBox="0 0 183 174" fill="none" xmlns="http://www.w3.org/2000/svg">
<path d="M119.014 127.996H146.263C166.387 127.996 182.702 111.682 182.702 91.5568C182.702 74.4655 170.935 60.1225 155.06 56.187C155.267 54.3408 155.372 52.4642 155.372 50.5629C155.372 22.8915 132.94 0.45929 105.269 0.45929C82.3173 0.45929 62.9702 15.8915 57.0378 36.9456C56.4176 36.9142 55.7932 36.8983 55.1652 36.8983C35.0405 36.8983 18.7262 53.2126 18.7262 73.3373C18.7262 73.8545 18.7369 74.3692 18.7583 74.8811C8.12687 78.6237 0.506653 88.7552 0.506653 100.667C0.506653 115.76 12.7424 127.996 27.8359 127.996H53.7828L92.8045 59.7079C97.4393 51.597 109.824 54.8859 109.824 64.2276V100.667H118.933C125.928 100.667 130.313 108.223 126.843 114.296L119.014 127.996Z" fill="white"/>
<path d="M64.2749 127.996L100.714 64.2276V109.776H118.933L82.4944 173.545V127.996H64.2749Z" fill="white"/>
</svg>
