<svg width="14" height="15" viewBox="0 0 14 15" fill="none" xmlns="http://www.w3.org/2000/svg">
<path fill-rule="evenodd" clip-rule="evenodd" d="M11.8515 7.45648C11.8515 4.74859 9.65635 2.55341 6.94845 2.55341C4.24056 2.55341 2.04538 4.74859 2.04538 7.45648C2.04538 10.1644 4.24056 12.3596 6.94845 12.3596C9.65635 12.3596 11.8515 10.1644 11.8515 7.45648ZM6.51583 4.57232C6.51583 4.33339 6.70952 4.1397 6.94845 4.1397C7.18739 4.1397 7.38108 4.33339 7.38108 4.57232V7.45648C7.38108 7.60565 7.30424 7.74429 7.17774 7.82335L5.44725 8.90491C5.24463 9.03154 4.97772 8.96995 4.85109 8.76734C4.72446 8.56472 4.78605 8.29781 4.98867 8.17118L6.51583 7.2167V4.57232Z" fill="white"/>
</svg>
