<svg width="18" height="18" viewBox="0 0 18 18" fill="none" xmlns="http://www.w3.org/2000/svg">
<g clip-path="url(#clip0_1_6540)">
<g filter="url(#filter0_d_1_6540)">
<path d="M9.13008 1.71232L8.67033 1.29736L8.21058 1.71232C7.96303 1.90498 3.01189 6.42508 3.01189 10.4265C3.01189 11.9987 3.60805 13.5065 4.66921 14.6182C5.73037 15.7299 7.16962 16.3545 8.67033 16.3545C10.171 16.3545 11.6103 15.7299 12.6715 14.6182C13.7326 13.5065 14.3288 11.9987 14.3288 10.4265C14.3288 6.42508 9.37764 1.90498 9.13008 1.71232ZM10.2476 13.7387L9.61812 12.4124C9.97045 12.2281 10.2669 11.9447 10.4742 11.594C10.6816 11.2433 10.7917 10.839 10.7922 10.4265H12.2069C12.2062 11.1147 12.0225 11.7892 11.6765 12.3742C11.3304 12.9593 10.8356 13.4318 10.2476 13.7387Z" fill="white"/>
</g>
</g>
<defs>
<filter id="filter0_d_1_6540" x="-0.988106" y="1.29736" width="19.3169" height="23.0571" filterUnits="userSpaceOnUse" color-interpolation-filters="sRGB">
<feFlood flood-opacity="0" result="BackgroundImageFix"/>
<feColorMatrix in="SourceAlpha" type="matrix" values="0 0 0 0 0 0 0 0 0 0 0 0 0 0 0 0 0 0 127 0" result="hardAlpha"/>
<feOffset dy="4"/>
<feGaussianBlur stdDeviation="2"/>
<feComposite in2="hardAlpha" operator="out"/>
<feColorMatrix type="matrix" values="0 0 0 0 0 0 0 0 0 0 0 0 0 0 0 0 0 0 0.25 0"/>
<feBlend mode="normal" in2="BackgroundImageFix" result="effect1_dropShadow_1_6540"/>
<feBlend mode="normal" in="SourceGraphic" in2="effect1_dropShadow_1_6540" result="shape"/>
</filter>
<clipPath id="clip0_1_6540">
<rect width="16.9753" height="17.784" fill="white" transform="translate(0.186447 0.0523682)"/>
</clipPath>
</defs>
</svg>
