<svg width="31" height="31" viewBox="0 0 31 31" fill="none" xmlns="http://www.w3.org/2000/svg">
<path d="M10.6848 15.405C10.6848 12.858 12.7495 10.7933 15.2965 10.7933C17.8434 10.7933 19.9082 12.858 19.9082 15.405C19.9082 17.9519 17.8434 20.0167 15.2965 20.0167C12.7495 20.0167 10.6848 17.9519 10.6848 15.405Z" fill="white"/>
<path fill-rule="evenodd" clip-rule="evenodd" d="M14.5312 0.986013C14.9496 0.553165 15.6434 0.553165 16.0617 0.986013L19.7118 4.76261H24.8746C25.4624 4.76261 25.9389 5.23909 25.9389 5.82685V10.9897L29.7155 14.6397C30.1483 15.0581 30.1483 15.7519 29.7155 16.1702L25.9389 19.8203V24.9831C25.9389 25.5709 25.4624 26.0473 24.8746 26.0473H19.7118L16.0617 29.8239C15.6434 30.2568 14.9496 30.2568 14.5312 29.8239L10.8812 26.0473H5.71836C5.1306 26.0473 4.65412 25.5709 4.65412 24.9831V19.8203L0.877523 16.1702C0.444676 15.7519 0.444675 15.0581 0.877522 14.6397L4.65412 10.9897V5.82685C4.65412 5.23909 5.1306 4.76261 5.71836 4.76261H10.8812L14.5312 0.986013ZM15.2965 8.66481C11.574 8.66481 8.55631 11.6825 8.55631 15.405C8.55631 19.1275 11.574 22.1451 15.2965 22.1451C19.019 22.1451 22.0366 19.1275 22.0366 15.405C22.0366 11.6825 19.019 8.66481 15.2965 8.66481Z" fill="white"/>
</svg>
