<svg width="18" height="18" viewBox="0 0 18 18" fill="none" xmlns="http://www.w3.org/2000/svg">
<g clip-path="url(#clip0_1_6564)">
<path d="M6.41189 4.28578C6.41189 3.5331 6.71089 2.81126 7.24311 2.27903C7.77533 1.74681 8.49718 1.44781 9.24986 1.44781C10.0025 1.44781 10.7244 1.74681 11.2566 2.27903C11.7888 2.81126 12.0878 3.5331 12.0878 4.28578V8.01415C12.9555 8.61834 13.6077 9.48368 13.9496 10.4842C14.2914 11.4848 14.305 12.5683 13.9884 13.5771C13.6718 14.5859 13.0414 15.4673 12.1892 16.0931C11.3369 16.7189 10.3072 17.0563 9.24986 17.0563C8.19253 17.0563 7.1628 16.7189 6.31053 16.0931C5.45826 15.4673 4.82795 14.5859 4.51133 13.5771C4.1947 12.5683 4.2083 11.4848 4.55013 10.4842C4.89196 9.48368 5.54419 8.61834 6.41189 8.01415V4.28578ZM7.22355 9.17772C6.60358 9.60915 6.13749 10.2272 5.89315 10.9419C5.64881 11.6566 5.63896 12.4307 5.86504 13.1513C6.09113 13.872 6.54134 14.5017 7.15014 14.9488C7.75894 15.3959 8.49454 15.637 9.24986 15.637C10.0052 15.637 10.7408 15.3959 11.3496 14.9488C11.9584 14.5017 12.4086 13.872 12.6347 13.1513C12.8608 12.4307 12.8509 11.6566 12.6066 10.9419C12.3622 10.2272 11.8961 9.60915 11.2762 9.17772L10.6688 8.75415V4.28578C10.6688 3.90944 10.5193 3.54852 10.2532 3.28241C9.98712 3.0163 9.62619 2.8668 9.24986 2.8668C8.87352 2.8668 8.51259 3.0163 8.24648 3.28241C7.98037 3.54852 7.83087 3.90944 7.83087 4.28578V8.75415L7.22355 9.17772ZM8.54036 9.34161V4.28578H9.95935V9.34161C10.6266 9.51595 11.2076 9.9272 11.5939 10.4986C11.9801 11.0699 12.1452 11.7623 12.0583 12.4465C11.9714 13.1307 11.6385 13.7598 11.1217 14.2165C10.6049 14.6732 9.93952 14.9261 9.24986 14.9281C8.55862 14.9288 7.8909 14.6772 7.37203 14.2205C6.85315 13.7638 6.51879 13.1335 6.4317 12.4477C6.34461 11.762 6.51079 11.0681 6.89903 10.4962C7.28728 9.92427 7.8709 9.51373 8.54036 9.34161ZM9.24986 13.5092C9.62619 13.5092 9.98712 13.3597 10.2532 13.0935C10.5193 12.8274 10.6688 12.4665 10.6688 12.0902C10.6688 11.7138 10.5193 11.3529 10.2532 11.0868C9.98712 10.8207 9.62619 10.6712 9.24986 10.6712C8.87352 10.6712 8.51259 10.8207 8.24648 11.0868C7.98037 11.3529 7.83087 11.7138 7.83087 12.0902C7.83087 12.4665 7.98037 12.8274 8.24648 13.0935C8.51259 13.3597 8.87352 13.5092 9.24986 13.5092Z" fill="white"/>
</g>
<defs>
<clipPath id="clip0_1_6564">
<rect width="17.0278" height="17.0278" fill="white" transform="translate(0.732452 0.738037)"/>
</clipPath>
</defs>
</svg>
