<svg width="48" height="44" viewBox="0 0 48 44" fill="none" xmlns="http://www.w3.org/2000/svg">
<g clip-path="url(#clip0_1_6586)">
<path d="M7.04951 3.85325L7.55911 4.32287C8.0687 4.78044 8.0687 5.55109 7.55911 6.00866L7.54604 6.02071C7.03644 6.49032 6.22632 6.49032 5.71673 6.02071L5.20713 5.55109C4.69754 5.09352 4.69754 4.33491 5.20713 3.86529L5.2202 3.85325C5.71673 3.39568 6.53992 3.38364 7.04951 3.85325Z" fill="white"/>
<path d="M2.2541 11.9812H3.58688C4.30554 11.9812 4.88047 12.511 4.88047 13.1853V13.1974C4.88047 13.8597 4.30554 14.3895 3.57382 14.3774H2.2541C1.53544 14.3774 0.96051 13.8476 0.96051 13.1853V13.1733C0.96051 12.511 1.53544 11.9812 2.2541 11.9812Z" fill="white"/>
<path d="M15.3337 0H15.3468C16.0654 0 16.6403 0.529822 16.6403 1.1921V2.36012C16.6403 3.02239 16.0654 3.55222 15.3337 3.54017H15.3206C14.602 3.54017 14.027 3.01035 14.027 2.34808V1.1921C14.027 0.529822 14.602 0 15.3337 0Z" fill="white"/>
<path d="M23.6179 3.85325C24.1275 3.39568 24.9506 3.39568 25.4602 3.86529C25.9698 4.33491 25.9698 5.08148 25.4602 5.55109L24.9506 6.02071C24.4541 6.49032 23.6309 6.49032 23.1213 6.02071L23.1083 6.00866C22.5987 5.55109 22.5987 4.79248 23.1083 4.32287L23.6179 3.85325Z" fill="white"/>
<path d="M7.49377 13.1853C7.49377 9.19964 11.0087 5.9605 15.3337 5.9605C18.3024 5.9605 20.8894 7.48659 22.22 9.73271C20.7029 10.9759 19.5692 12.6079 19.0032 14.4591C18.8698 14.4528 18.7354 14.4497 18.6003 14.4497C15.1666 14.4497 12.2485 16.484 11.1876 19.3161C8.97061 18.0387 7.49377 15.7689 7.49377 13.1853Z" fill="white"/>
<path d="M7.04951 22.5054C6.53992 22.975 5.71673 22.975 5.20713 22.5054C4.69754 22.0358 4.69754 21.2892 5.19406 20.8076L5.70366 20.3379C6.21325 19.8683 7.03644 19.8683 7.54604 20.3379L7.55911 20.35C8.05563 20.8076 8.0687 21.5662 7.55911 22.0358L7.04951 22.5054Z" fill="white"/>
<path d="M40.1601 34.318H14.6804C11.433 34.318 8.80042 31.892 8.80042 28.8994C8.80042 26.5377 10.4399 24.5289 12.7273 23.7868C12.7227 23.6853 12.7204 23.5833 12.7204 23.4807C12.7204 19.4906 16.2304 16.2559 20.5603 16.2559C20.6954 16.2559 20.8298 16.2591 20.9632 16.2653C22.2396 12.0908 26.4021 9.03106 31.3402 9.03106C37.2937 9.03106 42.1201 13.4787 42.1201 18.9652C42.1201 19.3422 42.0973 19.7143 42.0529 20.0803C45.4683 20.8606 48 23.7044 48 27.0932C48 31.0833 44.4899 34.318 40.1601 34.318Z" fill="white"/>
<path d="M20.5317 41.5956L23.1369 36.794C23.3596 36.3835 23.8148 36.1242 24.3129 36.1242C25.2902 36.1242 25.9259 37.0721 25.4888 37.8777L22.8837 42.6793C22.661 43.0898 22.2057 43.3491 21.7077 43.3491C20.7303 43.3491 20.0946 42.4012 20.5317 41.5956Z" fill="white"/>
<path d="M26.4116 41.5956L29.0168 36.794C29.2395 36.3835 29.6948 36.1242 30.1928 36.1242C31.1702 36.1242 31.8059 37.0721 31.3688 37.8777L28.7636 42.6793C28.5409 43.0898 28.0856 43.3491 27.5876 43.3491C26.6102 43.3491 25.9745 42.4012 26.4116 41.5956Z" fill="white"/>
</g>
<defs>
<clipPath id="clip0_1_6586">
<rect width="47.0395" height="43.3491" fill="white" transform="translate(0.96051)"/>
</clipPath>
</defs>
</svg>
