<svg width="16" height="15" viewBox="0 0 16 15" fill="none" xmlns="http://www.w3.org/2000/svg">
<path d="M7.71711 6.50514C9.18651 6.50514 10.3777 5.31395 10.3777 3.84455C10.3777 2.37515 9.18651 1.18396 7.71711 1.18396C6.24771 1.18396 5.05652 2.37515 5.05652 3.84455" stroke="white" stroke-width="1.36222" stroke-linecap="round"/>
<path d="M2.39627 6.50537H7.71745" stroke="white" stroke-width="1.36222" stroke-linecap="round"/>
<path d="M2.93472 10.7625H10.3844" stroke="white" stroke-width="1.36222" stroke-linecap="round"/>
<path d="M8.78873 12.3588C8.78873 13.2404 9.50344 13.9552 10.3851 13.9552C11.2667 13.9552 11.9814 13.2404 11.9814 12.3588C11.9814 11.4772 11.2667 10.7625 10.3851 10.7625" stroke="white" stroke-width="1.36222" stroke-linecap="round"/>
<path d="M12.5086 8.63454C13.978 8.63454 15.1692 7.44335 15.1692 5.97394C15.1692 4.50454 13.978 3.31335 12.5086 3.31335C12.3509 3.31335 12.1964 3.32707 12.0463 3.35337" stroke="white" stroke-width="1.36222" stroke-linecap="round"/>
<path d="M1.33429 8.63391H12.5088" stroke="white" stroke-width="1.36222" stroke-linecap="round"/>
</svg>
